#!OML:ASF H:\Terrain\Patient Classification 1\Animal1\Tuesday\Animal1.ASF
:FULLY-SPECIFIED
:DEGREES
3974
root 0.0608035 15.847 -21.8376 -1601.53 -130.576 -534.039
lowerback 30.5217 -0.879 -3.41592
upperback 5.76483 -2.44463 -0.134703
thorax -10.1257 -1.12795 2.76916
lowerneck -8.183 4.14217 -4.01903
upperneck -17.5309 5.78215 1.99802
head -4.62496 2.90541 1.29965
rclavicle -2.0276e-014 1.19271e-015
rhumerus -72.8573 18.117 -100.035
rradius 71.5315
rwrist -72.5685
rhand 14.9618 -351.402
rfingers 7.12502
rthumb 39.8157 -16.6834
lclavicle -2.0276e-014 1.19271e-015
lhumerus -62.1635 -11.5269 102.593
lradius 54.0711
lwrist 32.1812
lhand -12.5474 33.6317
lfingers 7.12502
lthumb 13.5294 -296.828
rfemur -70.5641 2.92987 18.2769
rtibia 60.353
rfoot 31.4321 11.9083
rtoes -11.4399
lfemur -30.7075 -13.7392 -10.1783
ltibia 51.1497
lfoot 30.0823 -7.73262
ltoes 27.7326
3975
root 0.0672939 15.8502 -21.8459 -1601.52 -130.686 -534.026
lowerback 30.521 -0.884997 -3.37396
upperback 5.76342 -2.43458 -0.103304
thorax -10.1279 -1.12375 2.77684
lowerneck -8.09155 4.15675 -3.99058
upperneck -17.779 5.78998 1.93872
head -4.73295 2.90749 1.27107
rclavicle 6.71892e-014 9.93923e-017
rhumerus -72.8347 18.1757 -100.01
rradius 71.5202
rwrist -72.5541
rhand 15.0098 -351.306
rfingers 7.12502
rthumb 39.8609 -16.5739
lclavicle 6.71892e-014 9.93923e-017
lhumerus -62.017 -11.528 102.609
lradius 53.9227
lwrist 32.3433
lhand -12.468 33.6064
lfingers 7.12502
lthumb 13.606 -296.858
rfemur -70.5715 3.03439 18.0506
rtibia 60.268
rfoot 31.7531 10.8976
rtoes -9.6375
lfemur -30.8778 -13.5729 -10.2517
ltibia 51.2934
lfoot 29.8491 -8.27883
ltoes 25.6365
3976
root 0.0692645 15.8573 -21.8349 -1601.86 -130.544 -533.846
lowerback 30.5853 -0.827485 -3.4606
upperback 5.85028 -2.39643 -0.122721
thorax -10.0589 -1.10894 2.79086
lowerneck -8.32251 4.18774 -4.00648
upperneck -17.7241 5.83195 1.89365
head -4.66985 2.93161 1.26262
rclavicle 3.4191e-014 4.22417e-014
rhumerus -72.733 18.4017 -99.9928
rradius 71.4483
rwrist -72.6705
rhand 15.1541 -351.016
rfingers 7.12502
rthumb 39.9967 -16.2433
lclavicle 3.4191e-014 4.22417e-014
lhumerus -61.8057 -11.4531 102.629
lradius 53.7938
lwrist 32.4575
lhand -12.0502 33.7496
lfingers 7.12502
lthumb 14.0087 -296.742
rfemur -70.3243 3.17296 17.6921
rtibia 60.1673
rfoot 31.677 11.0338
rtoes -10.0031
lfemur -30.5766 -13.5937 -10.6247
ltibia 51.2724
lfoot 29.7859 -8.0306
ltoes 25.1726
3977
root 0.0831903 15.8545 -21.8656 -1601.73 -130.816 -533.408
lowerback 30.2484 -0.875409 -3.73339
upperback 5.72602 -2.51341 -0.0605078
thorax -10.013 -1.14984 3.05299
lowerneck -8.51941 4.17972 -3.95125
upperneck -17.6733 5.8057 1.77073
head -4.60551 2.91987 1.21574
rclavicle 6.0033e-014 -6.11263e-014
rhumerus -72.7096 18.5702 -99.9961
rradius 71.4905
rwrist -72.7288
rhand 15.6546 -350.741
rfingers 7.12502
rthumb 40.4674 -15.8239
lclavicle 6.0033e-014 -6.11263e-014
lhumerus -61.6504 -11.3965 102.735
lradius 53.5676
lwrist 32.3634
lhand -11.975 33.5862
lfingers 7.12502
lthumb 14.0811 -296.911
rfemur -70.9437 3.00219 17.3233
rtibia 60.1862
rfoot 31.6627 11.5457
rtoes -11.7653
lfemur -31.3163 -13.6049 -10.5661
ltibia 51.2473
lfoot 30.2913 -6.86937
ltoes 29.2772
3978
root 0.087026 15.8578 -21.8638 -1601.94 -130.82 -533.301
lowerback 30.3117 -0.889349 -3.71397
upperback 5.72804 -2.5285 -0.0631726
thorax -10.0418 -1.15668 3.04673
lowerneck -8.44428 4.18685 -4.04707
upperneck -17.7842 5.81457 1.74823
head -4.66517 2.93054 1.22232
rclavicle 5.86415e-015 -5.1684e-015
rhumerus -72.8562 18.7093 -100.009
rradius 71.6138
rwrist -72.7335
rhand 15.9208 -350.769
rfingers 7.12502
rthumb 40.7177 -15.7744
lclavicle 5.86415e-015 -5.1684e-015
lhumerus -61.6372 -11.1935 102.786
lradius 53.3963
lwrist 32.274
lhand -12.0164 33.1528
lfingers 7.12502
lthumb 14.0412 -297.342
rfemur -70.8266 3.00927 17.1169
rtibia 60.2055
rfoot 31.8216 11.2998
rtoes -12.0109
lfemur -31.0485 -13.7133 -10.679
ltibia 51.0998
lfoot 30.3231 -5.66596
ltoes 32.3884
